<?xml version="1.0" standalone="no"?>
<!DOCTYPE svg PUBLIC "-//W3C//DTD SVG 20010904//EN"
 "http://www.w3.org/TR/2001/REC-SVG-20010904/DTD/svg10.dtd">
<svg version="1.0" xmlns="http://www.w3.org/2000/svg"
 width="1072.000000pt" height="1072.000000pt" viewBox="0 0 1072.000000 1072.000000"
 preserveAspectRatio="xMidYMid meet">
<metadata>
Created by potrace 1.14, written by Peter Selinger 2001-2017
</metadata>
<g transform="translate(0.000000,1072.000000) scale(0.100000,-0.100000)"
fill="#000000" stroke="none">
<path d="M769 9104 c-80 -179 -154 -402 -162 -491 -1 -13 -5 -23 -8 -23 -3 0
-6 -6 -6 -12 0 -7 -3 -29 -6 -48 -19 -113 -25 -156 -33 -250 -12 -138 -7 -399
11 -520 2 -19 7 -55 10 -80 3 -25 7 -52 10 -60 2 -8 7 -31 10 -50 2 -19 9 -55
15 -80 6 -25 13 -56 15 -70 6 -28 23 -87 32 -110 3 -8 7 -19 8 -25 2 -5 6 -21
9 -35 5 -17 1 -31 -11 -45 -10 -11 -38 -47 -63 -80 -25 -33 -47 -62 -50 -65
-27 -27 -210 -322 -210 -338 0 -5 -7 -15 -15 -22 -9 -7 -14 -15 -11 -17 2 -3
-14 -41 -36 -86 -22 -45 -41 -86 -42 -92 -1 -5 -8 -20 -14 -32 -7 -13 -10 -23
-6 -23 3 0 2 -6 -3 -12 -21 -27 -121 -347 -127 -408 -1 -9 -5 -21 -10 -28 -4
-6 -5 -12 -2 -12 2 0 0 -15 -5 -32 -5 -18 -12 -53 -15 -78 -3 -25 -8 -54 -10
-65 -2 -11 -7 -38 -10 -60 -5 -40 -8 -59 -21 -190 -10 -92 -9 -602 0 -730 15
-203 21 -264 31 -315 2 -14 7 -45 10 -70 3 -25 8 -56 11 -70 3 -14 7 -38 9
-55 6 -44 44 -208 71 -308 3 -9 7 -26 9 -37 3 -11 8 -25 11 -30 3 -5 8 -18 10
-27 12 -63 115 -308 149 -358 12 -16 19 -30 17 -30 -9 0 77 -141 134 -220 148
-206 388 -435 579 -550 27 -17 65 -40 85 -52 62 -39 316 -162 347 -168 6 -2
27 -10 45 -18 88 -40 371 -145 416 -153 12 -2 35 -9 50 -15 24 -10 60 -20 153
-43 8 -2 35 -9 60 -16 47 -13 66 -17 115 -25 17 -3 38 -8 47 -11 20 -6 54 -13
93 -19 17 -2 41 -7 55 -9 14 -3 42 -7 63 -10 20 -3 52 -8 70 -11 17 -3 55 -7
82 -11 28 -3 64 -7 80 -9 78 -9 164 -17 202 -18 24 -1 43 -4 43 -7 0 -3 21 -6
48 -7 26 -1 74 -4 107 -7 73 -6 227 -16 315 -21 79 -5 587 -16 725 -16 54 0
103 -3 107 -5 4 -3 4 -13 -2 -23 -5 -10 -6 -21 -3 -25 4 -3 8 -23 10 -44 2
-20 8 -51 14 -68 5 -17 11 -40 14 -52 2 -11 14 -37 28 -58 13 -22 26 -44 28
-50 9 -26 88 -109 134 -143 110 -81 226 -116 355 -108 47 3 99 8 115 11 41 8
195 86 195 99 0 6 3 8 6 4 3 -3 138 126 299 287 161 161 299 293 307 293 7 1
47 8 88 16 41 9 89 18 105 21 17 2 39 7 50 10 40 9 111 25 135 30 98 20 457
133 512 162 15 8 29 14 30 13 12 -4 211 91 220 105 4 6 8 8 8 4 0 -13 197 105
325 196 69 49 81 58 120 93 12 10 36 30 55 44 19 15 64 54 99 88 62 59 74 66
96 61 6 -2 26 -6 45 -10 19 -5 46 -11 60 -14 14 -4 39 -8 55 -11 17 -2 39 -6
50 -9 11 -2 49 -7 85 -11 36 -3 81 -8 100 -11 50 -6 337 -7 390 0 25 3 72 8
105 12 87 9 96 11 156 23 30 6 63 13 74 15 11 2 47 11 80 20 33 10 65 18 70
19 44 11 132 42 139 49 6 4 20 8 31 8 12 0 25 3 29 7 4 5 11 8 14 9 18 2 204
91 297 142 65 35 213 129 225 142 3 3 23 18 45 35 93 69 144 113 250 220 98
97 169 179 230 260 39 52 135 195 135 201 0 2 11 22 24 43 13 21 43 76 66 122
23 46 49 96 57 111 8 16 11 28 7 28 -3 0 0 7 7 16 7 9 14 21 16 28 1 6 17 54
36 107 19 52 49 151 66 220 27 111 33 144 47 239 27 183 26 531 -1 680 -2 14
-6 43 -9 65 -3 22 -9 55 -15 73 -5 17 -8 32 -6 32 3 0 1 10 -4 23 -5 13 -12
39 -15 58 -3 19 -19 75 -35 124 -26 80 -41 121 -83 229 -17 44 -114 234 -148
291 -17 28 -36 60 -42 73 -6 12 -15 22 -20 22 -4 0 -8 5 -8 10 0 32 -190 263
-324 395 -132 130 -161 155 -258 226 -40 29 -75 56 -78 59 -7 7 -42 29 -60 37
-8 4 -17 10 -20 14 -13 17 -278 155 -370 192 -25 10 -53 22 -62 28 -10 5 -22
9 -27 9 -5 0 -22 5 -38 12 -15 6 -35 13 -43 14 -8 1 -28 7 -45 14 -16 7 -33
13 -37 12 -4 -1 -19 3 -34 8 -32 12 -179 46 -244 55 -147 22 -228 28 -395 29
-175 0 -276 -7 -400 -29 -16 -3 -47 -8 -68 -11 -36 -5 -37 -4 -31 21 18 71 5
489 -19 600 -3 17 -9 48 -12 70 -19 142 -137 516 -169 537 -6 4 -8 8 -3 8 4 0
-4 23 -18 51 l-26 51 -127 -6 c-70 -3 -138 -8 -152 -10 -14 -2 -47 -7 -75 -10
-27 -3 -61 -8 -75 -11 -14 -3 -38 -8 -55 -11 -16 -3 -48 -9 -70 -15 -22 -5
-51 -12 -63 -15 -49 -10 -200 -64 -277 -97 -122 -54 -350 -178 -411 -224 -17
-13 -34 -23 -37 -23 -4 0 -50 -30 -104 -67 -54 -37 -118 -80 -143 -97 -25 -16
-47 -33 -50 -36 -3 -3 -39 -30 -80 -60 -41 -29 -76 -57 -78 -62 -2 -4 -8 -8
-13 -8 -6 0 -22 -11 -37 -25 -32 -29 -34 -30 -109 -10 -32 9 -71 18 -88 21
-16 2 -62 11 -100 19 -39 8 -86 16 -105 19 -19 2 -62 9 -95 15 -75 13 -115 18
-185 26 -30 3 -71 8 -90 11 -161 20 -305 26 -640 28 -278 1 -551 -8 -609 -19
-14 -2 -53 -6 -216 -20 -16 -2 -50 -6 -75 -10 -25 -4 -61 -9 -80 -10 -19 -2
-35 -4 -35 -5 0 -1 -11 -4 -25 -5 -31 -4 -256 -42 -290 -50 -14 -2 -35 -7 -48
-9 -13 -3 -31 -7 -40 -10 -9 -3 -33 -7 -52 -10 -19 -3 -49 -10 -66 -15 -29 -8
-37 -4 -105 48 -41 31 -114 86 -164 121 -49 36 -91 68 -93 73 -2 4 -10 7 -17
7 -7 0 -15 3 -17 8 -11 26 -403 265 -558 340 -160 78 -357 144 -500 168 -14 3
-49 9 -78 15 -29 6 -59 8 -67 6 -7 -3 -16 -3 -20 1 -7 8 -16 9 -187 18 l-128
6 -31 -68z m1791 -3309 c36 -2 88 -7 115 -10 28 -3 70 -8 95 -10 41 -4 81 -9
165 -20 73 -9 123 -15 163 -20 129 -15 208 -26 236 -31 10 -2 44 -6 75 -10 31
-3 65 -8 76 -10 11 -2 47 -6 80 -9 33 -3 76 -7 95 -10 230 -30 908 -24 1115
10 11 2 20 4 20 5 0 0 25 3 55 5 30 2 69 6 85 9 17 3 71 10 120 17 50 6 104
13 120 15 17 3 48 6 70 8 22 3 58 7 80 11 68 10 100 14 161 20 32 3 75 8 94
10 58 8 172 17 217 19 24 0 43 4 43 8 0 4 7 5 16 1 14 -5 15 -16 9 -67 -3 -34
-8 -140 -11 -236 l-4 -175 -62 -1 c-110 -2 -206 -29 -277 -79 -43 -30 -162
-158 -196 -210 -71 -112 -150 -312 -157 -402 -2 -13 -5 -23 -8 -23 -14 0 -20
-341 -8 -440 31 -243 135 -465 290 -622 37 -38 68 -71 68 -74 0 -3 -197 -202
-438 -443 l-439 -438 -634 3 c-660 4 -769 6 -769 14 0 3 -21 5 -48 6 -54 1
-217 14 -247 20 -44 9 -144 25 -175 29 -36 4 -246 52 -303 69 -26 8 -50 14
-52 15 -9 1 -150 43 -165 48 -8 4 -17 7 -20 8 -3 1 -18 7 -35 14 -16 6 -55 21
-85 33 -30 12 -59 24 -65 28 -5 4 -27 13 -47 19 -21 7 -38 17 -38 22 0 5 -6 9
-13 9 -7 0 -46 20 -86 45 -40 25 -77 45 -81 45 -5 0 -10 3 -12 8 -1 4 -21 20
-43 37 -90 66 -187 163 -259 260 -78 104 -92 130 -211 375 -11 23 -22 60 -25
85 -1 6 -6 15 -10 20 -5 6 -11 22 -14 35 -3 14 -7 36 -10 50 -20 90 -38 195
-43 255 -16 176 -2 503 24 575 3 8 7 28 9 45 13 94 149 419 200 476 8 8 14 20
14 26 0 6 3 13 8 15 4 2 29 32 57 68 202 266 488 420 825 445 41 3 75 7 77 8
2 3 115 -2 213 -8z"/>
<path d="M2475 5314 c-109 -23 -170 -58 -260 -151 -60 -63 -63 -66 -102 -123
-166 -243 -232 -653 -157 -970 3 -14 8 -38 11 -55 3 -16 10 -36 15 -42 6 -7 7
-13 4 -13 -4 0 -2 -9 4 -21 6 -11 13 -29 15 -39 6 -31 84 -185 105 -208 11
-12 20 -25 20 -29 0 -10 37 -54 98 -116 194 -199 507 -191 691 16 9 11 28 33
44 50 39 45 113 168 141 235 45 107 95 312 91 370 -1 12 1 22 4 22 3 0 5 51 5
112 -1 107 -6 167 -20 248 -4 19 -8 42 -9 50 -34 191 -151 412 -287 541 -42
40 -187 129 -196 120 -1 -1 -21 1 -45 4 -68 12 -108 12 -172 -1z"/>
</g>
</svg>
